<svg xmlns="http://www.w3.org/2000/svg" xmlns:xlink="http://www.w3.org/1999/xlink" width="696" zoomAndPan="magnify" viewBox="0 0 522 252.749989" height="337" preserveAspectRatio="xMidYMid meet" version="1.0"><defs><g/><clipPath id="7aff0ac45a"><path d="M 420 17 L 500 17 L 500 94 L 420 94 Z M 420 17 " clip-rule="nonzero"/></clipPath><clipPath id="f3bc123367"><path d="M 433.015625 0 L 521.585938 44.011719 L 488.242188 111.113281 L 399.675781 67.101562 Z M 433.015625 0 " clip-rule="nonzero"/></clipPath><clipPath id="df8e25c8be"><path d="M 433.015625 0 L 521.585938 44.011719 L 488.242188 111.113281 L 399.675781 67.101562 Z M 433.015625 0 " clip-rule="nonzero"/></clipPath><clipPath id="b3f60685e1"><path d="M 433.015625 0 L 521.585938 44.011719 L 488.242188 111.113281 L 399.675781 67.101562 Z M 433.015625 0 " clip-rule="nonzero"/></clipPath></defs><g fill="#000000" fill-opacity="1"><g transform="translate(31.061092, 174.772647)"><g><path d="M 41.890625 0 L 3.234375 -102.90625 L 16.609375 -102.90625 L 49.09375 -13.078125 L 81.875 -102.90625 L 94.96875 -102.90625 L 56.296875 0 Z M 41.890625 0 "/></g></g></g><g fill="#000000" fill-opacity="1"><g transform="translate(124.837516, 174.772647)"><g><path d="M 42.921875 1.765625 C 35.960938 1.765625 29.785156 0.171875 24.390625 -3.015625 C 19.003906 -6.203125 14.769531 -10.632812 11.6875 -16.3125 C 8.601562 -22 7.0625 -28.710938 7.0625 -36.453125 C 7.0625 -44.097656 8.578125 -50.785156 11.609375 -56.515625 C 14.648438 -62.253906 18.890625 -66.710938 24.328125 -69.890625 C 29.765625 -73.078125 36.0625 -74.671875 43.21875 -74.671875 C 50.269531 -74.671875 56.367188 -73.078125 61.515625 -69.890625 C 66.660156 -66.710938 70.601562 -62.523438 73.34375 -57.328125 C 76.09375 -52.128906 77.46875 -46.546875 77.46875 -40.578125 C 77.46875 -39.492188 77.441406 -38.410156 77.390625 -37.328125 C 77.347656 -36.253906 77.328125 -35.03125 77.328125 -33.65625 L 19.25 -33.65625 C 19.550781 -28.070312 20.851562 -23.441406 23.15625 -19.765625 C 25.457031 -16.097656 28.347656 -13.332031 31.828125 -11.46875 C 35.304688 -9.601562 39.003906 -8.671875 42.921875 -8.671875 C 48.015625 -8.671875 52.273438 -9.847656 55.703125 -12.203125 C 59.140625 -14.554688 61.640625 -17.738281 63.203125 -21.75 L 75.40625 -21.75 C 73.445312 -14.988281 69.695312 -9.378906 64.15625 -4.921875 C 58.625 -0.460938 51.546875 1.765625 42.921875 1.765625 Z M 42.921875 -64.234375 C 37.046875 -64.234375 31.828125 -62.445312 27.265625 -58.875 C 22.710938 -55.300781 20.09375 -50.082031 19.40625 -43.21875 L 65.265625 -43.21875 C 64.972656 -49.78125 62.71875 -54.921875 58.5 -58.640625 C 54.289062 -62.367188 49.097656 -64.234375 42.921875 -64.234375 Z M 42.921875 -64.234375 "/></g></g></g><g fill="#000000" fill-opacity="1"><g transform="translate(204.062259, 174.772647)"><g><path d="M 10.140625 0 L 10.140625 -72.90625 L 21.3125 -72.90625 L 22.34375 -58.953125 C 24.59375 -63.753906 28.019531 -67.570312 32.625 -70.40625 C 37.238281 -73.25 42.925781 -74.671875 49.6875 -74.671875 L 49.6875 -61.734375 L 46.3125 -61.734375 C 42 -61.734375 38.023438 -60.972656 34.390625 -59.453125 C 30.765625 -57.941406 27.875 -55.375 25.71875 -51.75 C 23.5625 -48.125 22.484375 -43.125 22.484375 -36.75 L 22.484375 0 Z M 10.140625 0 "/></g></g></g><g fill="#000000" fill-opacity="1"><g transform="translate(253.007599, 174.772647)"><g><path d="M 17.640625 -89.078125 C 15.191406 -89.078125 13.15625 -89.882812 11.53125 -91.5 C 9.914062 -93.125 9.109375 -95.160156 9.109375 -97.609375 C 9.109375 -99.960938 9.914062 -101.921875 11.53125 -103.484375 C 13.15625 -105.054688 15.191406 -105.84375 17.640625 -105.84375 C 19.992188 -105.84375 22.003906 -105.054688 23.671875 -103.484375 C 25.335938 -101.921875 26.171875 -99.960938 26.171875 -97.609375 C 26.171875 -95.160156 25.335938 -93.125 23.671875 -91.5 C 22.003906 -89.882812 19.992188 -89.078125 17.640625 -89.078125 Z M 11.46875 0 L 11.46875 -72.90625 L 23.8125 -72.90625 L 23.8125 0 Z M 11.46875 0 "/></g></g></g><g fill="#000000" fill-opacity="1"><g transform="translate(283.72661, 174.772647)"><g><path d="M 14.109375 0 L 14.109375 -62.46875 L 3.09375 -62.46875 L 3.09375 -72.90625 L 14.109375 -72.90625 L 14.109375 -85.546875 C 14.109375 -92.609375 15.875 -97.753906 19.40625 -100.984375 C 22.9375 -104.222656 28.082031 -105.84375 34.84375 -105.84375 L 42.1875 -105.84375 L 42.1875 -95.25 L 36.75 -95.25 C 33.019531 -95.25 30.367188 -94.488281 28.796875 -92.96875 C 27.234375 -91.457031 26.453125 -88.890625 26.453125 -85.265625 L 26.453125 -72.90625 L 44.390625 -72.90625 L 44.390625 -62.46875 L 26.453125 -62.46875 L 26.453125 0 Z M 14.109375 0 "/></g></g></g><g fill="#000000" fill-opacity="1"><g transform="translate(328.262357, 174.772647)"><g><path d="M 14.40625 0.734375 C 11.957031 0.734375 9.921875 -0.0703125 8.296875 -1.6875 C 6.679688 -3.300781 5.875 -5.285156 5.875 -7.640625 C 5.875 -9.992188 6.679688 -11.976562 8.296875 -13.59375 C 9.921875 -15.207031 11.957031 -16.015625 14.40625 -16.015625 C 16.757812 -16.015625 18.742188 -15.207031 20.359375 -13.59375 C 21.972656 -11.976562 22.78125 -9.992188 22.78125 -7.640625 C 22.78125 -5.285156 21.972656 -3.300781 20.359375 -1.6875 C 18.742188 -0.0703125 16.757812 0.734375 14.40625 0.734375 Z M 14.40625 0.734375 "/></g></g></g><g fill="#000000" fill-opacity="1"><g transform="translate(352.513896, 174.772647)"><g><path d="M 34.390625 1.765625 C 28.316406 1.765625 23.269531 0.738281 19.25 -1.3125 C 15.238281 -3.375 12.25 -6.117188 10.28125 -9.546875 C 8.320312 -12.984375 7.34375 -16.710938 7.34375 -20.734375 C 7.34375 -28.179688 10.1875 -33.910156 15.875 -37.921875 C 21.5625 -41.941406 29.304688 -43.953125 39.109375 -43.953125 L 58.796875 -43.953125 L 58.796875 -44.828125 C 58.796875 -51.203125 57.128906 -56.03125 53.796875 -59.3125 C 50.460938 -62.59375 46.003906 -64.234375 40.421875 -64.234375 C 35.617188 -64.234375 31.476562 -63.03125 28 -60.625 C 24.519531 -58.226562 22.34375 -54.726562 21.46875 -50.125 L 8.8125 -50.125 C 9.3125 -55.414062 11.101562 -59.875 14.1875 -63.5 C 17.269531 -67.125 21.113281 -69.890625 25.71875 -71.796875 C 30.332031 -73.710938 35.234375 -74.671875 40.421875 -74.671875 C 50.617188 -74.671875 58.285156 -71.953125 63.421875 -66.515625 C 68.566406 -61.078125 71.140625 -53.847656 71.140625 -44.828125 L 71.140625 0 L 60.125 0 L 59.390625 -13.078125 C 57.328125 -8.960938 54.3125 -5.457031 50.34375 -2.5625 C 46.375 0.320312 41.054688 1.765625 34.390625 1.765625 Z M 36.3125 -8.671875 C 41.007812 -8.671875 45.050781 -9.894531 48.4375 -12.34375 C 51.820312 -14.789062 54.394531 -17.972656 56.15625 -21.890625 C 57.914062 -25.816406 58.796875 -29.9375 58.796875 -34.25 L 58.796875 -34.390625 L 40.125 -34.390625 C 32.875 -34.390625 27.753906 -33.140625 24.765625 -30.640625 C 21.773438 -28.148438 20.28125 -25.039062 20.28125 -21.3125 C 20.28125 -17.488281 21.675781 -14.425781 24.46875 -12.125 C 27.269531 -9.820312 31.21875 -8.671875 36.3125 -8.671875 Z M 36.3125 -8.671875 "/></g></g></g><g fill="#000000" fill-opacity="1"><g transform="translate(427.623025, 174.772647)"><g><path d="M 17.640625 -89.078125 C 15.191406 -89.078125 13.15625 -89.882812 11.53125 -91.5 C 9.914062 -93.125 9.109375 -95.160156 9.109375 -97.609375 C 9.109375 -99.960938 9.914062 -101.921875 11.53125 -103.484375 C 13.15625 -105.054688 15.191406 -105.84375 17.640625 -105.84375 C 19.992188 -105.84375 22.003906 -105.054688 23.671875 -103.484375 C 25.335938 -101.921875 26.171875 -99.960938 26.171875 -97.609375 C 26.171875 -95.160156 25.335938 -93.125 23.671875 -91.5 C 22.003906 -89.882812 19.992188 -89.078125 17.640625 -89.078125 Z M 11.46875 0 L 11.46875 -72.90625 L 23.8125 -72.90625 L 23.8125 0 Z M 11.46875 0 "/></g></g></g><g clip-path="url(#7aff0ac45a)"><g clip-path="url(#f3bc123367)"><g clip-path="url(#df8e25c8be)"><g clip-path="url(#b3f60685e1)"><path fill="#000000" d="M 473.613281 81.671875 C 473.160156 81.644531 472.703125 81.613281 472.253906 81.574219 C 472.59375 80.882812 472.867188 80.335938 473.085938 79.898438 C 486.121094 54.75 499.214844 43.988281 499.214844 43.988281 C 490.960938 28.84375 463.863281 15.335938 446.742188 17.914062 C 446.742188 17.914062 446.074219 34.851562 433.898438 60.433594 C 433.691406 60.851562 433.433594 61.375 433.113281 62.015625 C 432.871094 61.75 432.636719 61.476562 432.390625 61.199219 C 413.492188 39.289062 416.785156 75.597656 444.175781 89.207031 C 471.40625 102.738281 501.972656 83.480469 473.613281 81.671875 Z M 473.613281 81.671875 " fill-opacity="1" fill-rule="nonzero"/></g></g></g></g></svg>